<svg width="310" height="296" viewBox="0 0 310 296" fill="none" xmlns="http://www.w3.org/2000/svg">
<path fill-rule="evenodd" clip-rule="evenodd" d="M0.350586 1.69245C0.350586 0.757733 1.10832 0 2.04303 0H233.062C233.996 0 234.754 0.75773 234.754 1.69244V196.126C234.754 196.553 234.916 196.964 235.206 197.277L307.614 275.309C308.619 276.392 307.851 278.152 306.373 278.152H235.521C235.04 278.152 234.583 277.948 234.262 277.591L195.961 234.965C195.64 234.608 195.182 234.404 194.702 234.404H2.04303C1.10832 234.404 0.350586 233.646 0.350586 232.711V1.69245ZM49.1497 42.3113C48.215 42.3113 47.4572 43.0691 47.4572 44.0038V185.182C47.4572 186.117 48.215 186.874 49.1497 186.874H71.7174H79.1408H109.299H128.675H147.289H164.939H187.507C188.442 186.874 189.199 186.117 189.199 185.182V44.0038C189.199 43.0691 188.442 42.3113 187.507 42.3113H164.774C164.306 42.3113 163.859 42.5048 163.539 42.8458L119.672 89.6028C119.004 90.3142 117.875 90.3156 117.206 89.6059L73.117 42.8428C72.7972 42.5036 72.3517 42.3113 71.8855 42.3113H49.1497Z" fill="url(#paint0_linear_symbol)"/>
<defs>
<linearGradient id="paint0_linear_symbol" x1="0" y1="0" x2="310" y2="296" gradientUnits="userSpaceOnUse">
<stop stop-color="#08102E"/>
<stop offset="0.4" stop-color="#1A2B6B"/>
<stop offset="0.75" stop-color="#0D58C6"/>
<stop offset="1" stop-color="#0D58C6"/>
</linearGradient>
</defs>
</svg>

